<?xml version="1.0" encoding="UTF-8"?>
<svg xmlns="http://www.w3.org/2000/svg" version="1.1" width="300" height="300" viewBox="0 0 300 300"><rect x="0" y="0" width="300" height="300" fill="#ffffff"/><g transform="scale(8.108)"><g transform="translate(0,0)"><path fill-rule="evenodd" d="M8 0L8 1L10 1L10 0ZM11 0L11 2L8 2L8 3L11 3L11 2L13 2L13 4L14 4L14 5L11 5L11 4L10 4L10 7L9 7L9 6L8 6L8 8L9 8L9 9L10 9L10 10L5 10L5 9L7 9L7 8L5 8L5 9L0 9L0 10L3 10L3 12L0 12L0 13L1 13L1 14L0 14L0 16L1 16L1 17L0 17L0 19L1 19L1 20L0 20L0 23L1 23L1 25L0 25L0 29L1 29L1 26L2 26L2 25L3 25L3 27L2 27L2 28L3 28L3 29L4 29L4 28L5 28L5 29L7 29L7 28L6 28L6 27L8 27L8 25L7 25L7 24L8 24L8 23L9 23L9 22L10 22L10 23L11 23L11 22L14 22L14 24L13 24L13 26L14 26L14 27L13 27L13 28L12 28L12 27L11 27L11 28L10 28L10 25L9 25L9 28L10 28L10 29L8 29L8 30L9 30L9 31L8 31L8 32L9 32L9 31L10 31L10 30L11 30L11 29L13 29L13 28L14 28L14 27L15 27L15 26L16 26L16 27L18 27L18 28L17 28L17 29L18 29L18 30L19 30L19 28L20 28L20 27L19 27L19 26L21 26L21 27L22 27L22 29L20 29L20 34L19 34L19 33L18 33L18 32L17 32L17 31L16 31L16 30L15 30L15 33L14 33L14 34L15 34L15 35L16 35L16 36L14 36L14 37L19 37L19 36L17 36L17 35L18 35L18 34L19 34L19 35L22 35L22 37L23 37L23 36L24 36L24 37L26 37L26 36L24 36L24 35L28 35L28 36L27 36L27 37L34 37L34 34L33 34L33 36L32 36L32 34L31 34L31 33L33 33L33 32L34 32L34 33L35 33L35 32L36 32L36 33L37 33L37 32L36 32L36 31L37 31L37 30L36 30L36 31L35 31L35 30L34 30L34 28L35 28L35 29L36 29L36 27L37 27L37 26L36 26L36 25L37 25L37 22L36 22L36 21L37 21L37 18L36 18L36 20L34 20L34 19L35 19L35 16L36 16L36 17L37 17L37 14L35 14L35 13L37 13L37 12L36 12L36 11L37 11L37 10L35 10L35 8L34 8L34 9L33 9L33 8L32 8L32 9L31 9L31 8L30 8L30 12L29 12L29 13L28 13L28 12L27 12L27 13L28 13L28 14L27 14L27 15L26 15L26 16L25 16L25 18L23 18L23 17L22 17L22 16L23 16L23 15L25 15L25 11L24 11L24 12L23 12L23 9L24 9L24 10L26 10L26 11L29 11L29 3L28 3L28 2L29 2L29 1L28 1L28 2L27 2L27 1L26 1L26 0L25 0L25 1L24 1L24 0L22 0L22 2L21 2L21 0L19 0L19 1L20 1L20 2L21 2L21 3L19 3L19 2L18 2L18 0L16 0L16 1L15 1L15 2L13 2L13 1L14 1L14 0L13 0L13 1L12 1L12 0ZM16 1L16 2L15 2L15 3L16 3L16 2L17 2L17 1ZM25 1L25 2L24 2L24 3L26 3L26 5L27 5L27 7L26 7L26 6L25 6L25 7L24 7L24 6L23 6L23 5L25 5L25 4L23 4L23 2L22 2L22 4L23 4L23 5L22 5L22 6L21 6L21 5L20 5L20 4L18 4L18 5L17 5L17 4L16 4L16 5L17 5L17 7L18 7L18 5L20 5L20 6L19 6L19 8L18 8L18 9L17 9L17 11L16 11L16 12L15 12L15 10L16 10L16 8L15 8L15 9L13 9L13 8L14 8L14 6L15 6L15 7L16 7L16 6L15 6L15 5L14 5L14 6L13 6L13 8L12 8L12 9L11 9L11 7L12 7L12 6L11 6L11 7L10 7L10 9L11 9L11 10L12 10L12 12L13 12L13 13L14 13L14 14L13 14L13 16L14 16L14 17L13 17L13 18L12 18L12 19L11 19L11 17L12 17L12 15L11 15L11 14L10 14L10 13L11 13L11 11L5 11L5 10L4 10L4 12L3 12L3 13L2 13L2 14L1 14L1 15L2 15L2 17L4 17L4 18L7 18L7 17L5 17L5 16L7 16L7 15L6 15L6 14L7 14L7 13L6 13L6 14L5 14L5 13L4 13L4 12L8 12L8 14L10 14L10 15L9 15L9 17L8 17L8 18L9 18L9 19L8 19L8 22L9 22L9 21L10 21L10 22L11 22L11 21L12 21L12 20L13 20L13 21L14 21L14 20L15 20L15 21L16 21L16 22L15 22L15 23L16 23L16 22L17 22L17 23L18 23L18 22L17 22L17 21L18 21L18 19L19 19L19 20L20 20L20 21L19 21L19 24L17 24L17 26L19 26L19 25L21 25L21 26L22 26L22 27L23 27L23 29L22 29L22 30L24 30L24 31L21 31L21 34L22 34L22 32L23 32L23 34L26 34L26 33L27 33L27 34L28 34L28 35L31 35L31 34L30 34L30 33L29 33L29 34L28 34L28 33L27 33L27 32L28 32L28 30L27 30L27 29L28 29L28 28L31 28L31 26L33 26L33 27L32 27L32 28L33 28L33 27L35 27L35 24L36 24L36 23L34 23L34 21L33 21L33 22L31 22L31 23L32 23L32 24L33 24L33 23L34 23L34 26L33 26L33 25L31 25L31 26L28 26L28 24L27 24L27 27L25 27L25 26L24 26L24 25L25 25L25 24L26 24L26 23L27 23L27 21L29 21L29 20L27 20L27 21L25 21L25 22L24 22L24 21L23 21L23 20L22 20L22 19L23 19L23 18L22 18L22 17L21 17L21 15L22 15L22 14L21 14L21 15L20 15L20 14L17 14L17 15L16 15L16 18L17 18L17 15L19 15L19 17L21 17L21 18L20 18L20 19L19 19L19 18L18 18L18 19L14 19L14 17L15 17L15 16L14 16L14 14L15 14L15 13L16 13L16 12L17 12L17 13L18 13L18 12L17 12L17 11L18 11L18 10L20 10L20 9L21 9L21 10L22 10L22 9L23 9L23 8L22 8L22 6L23 6L23 7L24 7L24 8L25 8L25 9L26 9L26 8L27 8L27 10L28 10L28 8L27 8L27 7L28 7L28 3L27 3L27 2L26 2L26 1ZM8 4L8 5L9 5L9 4ZM20 6L20 8L21 8L21 9L22 9L22 8L21 8L21 6ZM25 7L25 8L26 8L26 7ZM36 8L36 9L37 9L37 8ZM12 9L12 10L13 10L13 9ZM32 9L32 10L31 10L31 11L32 11L32 10L33 10L33 12L32 12L32 13L30 13L30 14L29 14L29 15L30 15L30 16L31 16L31 15L32 15L32 16L33 16L33 17L32 17L32 18L31 18L31 17L30 17L30 18L28 18L28 19L30 19L30 20L31 20L31 19L33 19L33 17L34 17L34 16L33 16L33 15L32 15L32 14L34 14L34 15L35 15L35 14L34 14L34 13L35 13L35 11L34 11L34 10L33 10L33 9ZM19 11L19 12L20 12L20 13L21 13L21 12L22 12L22 13L23 13L23 12L22 12L22 11ZM3 13L3 14L4 14L4 15L3 15L3 16L4 16L4 15L5 15L5 14L4 14L4 13ZM30 14L30 15L31 15L31 14ZM27 15L27 16L28 16L28 17L29 17L29 16L28 16L28 15ZM26 17L26 18L25 18L25 19L24 19L24 20L26 20L26 18L27 18L27 17ZM1 18L1 19L3 19L3 18ZM6 19L6 20L5 20L5 21L4 21L4 20L3 20L3 23L2 23L2 24L4 24L4 22L5 22L5 24L7 24L7 23L6 23L6 22L7 22L7 21L6 21L6 20L7 20L7 19ZM10 19L10 20L11 20L11 19ZM20 19L20 20L21 20L21 21L20 21L20 24L21 24L21 23L22 23L22 26L23 26L23 25L24 25L24 24L23 24L23 23L24 23L24 22L21 22L21 21L22 21L22 20L21 20L21 19ZM1 20L1 22L2 22L2 20ZM29 22L29 23L30 23L30 22ZM11 24L11 25L12 25L12 24ZM14 24L14 25L16 25L16 24ZM6 25L6 26L7 26L7 25ZM24 27L24 28L25 28L25 31L26 31L26 32L24 32L24 33L26 33L26 32L27 32L27 30L26 30L26 29L27 29L27 28L28 28L28 27L27 27L27 28L25 28L25 27ZM15 28L15 29L16 29L16 28ZM29 29L29 32L32 32L32 29ZM13 30L13 31L14 31L14 30ZM30 30L30 31L31 31L31 30ZM34 31L34 32L35 32L35 31ZM10 32L10 33L9 33L9 37L11 37L11 36L10 36L10 35L11 35L11 34L13 34L13 33L11 33L11 32ZM16 32L16 33L15 33L15 34L16 34L16 35L17 35L17 34L16 34L16 33L17 33L17 32ZM10 33L10 34L11 34L11 33ZM36 34L36 37L37 37L37 34ZM0 0L0 7L7 7L7 0ZM1 1L1 6L6 6L6 1ZM2 2L2 5L5 5L5 2ZM30 0L30 7L37 7L37 0ZM31 1L31 6L36 6L36 1ZM32 2L32 5L35 5L35 2ZM0 30L0 37L7 37L7 30ZM1 31L1 36L6 36L6 31ZM2 32L2 35L5 35L5 32Z" fill="#000000"/></g></g></svg>
