<?xml version="1.0" encoding="UTF-8"?>
<svg xmlns="http://www.w3.org/2000/svg" version="1.1" width="300" height="300" viewBox="0 0 300 300"><rect x="0" y="0" width="300" height="300" fill="#ffffff"/><g transform="scale(8.108)"><g transform="translate(0,0)"><path fill-rule="evenodd" d="M8 0L8 3L9 3L9 4L10 4L10 5L8 5L8 10L5 10L5 8L2 8L2 10L3 10L3 11L2 11L2 12L4 12L4 13L1 13L1 12L0 12L0 13L1 13L1 14L0 14L0 16L1 16L1 17L0 17L0 18L1 18L1 19L2 19L2 21L3 21L3 22L1 22L1 20L0 20L0 22L1 22L1 24L2 24L2 23L3 23L3 24L5 24L5 20L6 20L6 21L7 21L7 20L6 20L6 19L8 19L8 22L9 22L9 20L13 20L13 21L12 21L12 22L11 22L11 21L10 21L10 23L9 23L9 24L6 24L6 25L5 25L5 26L2 26L2 25L0 25L0 29L1 29L1 26L2 26L2 27L3 27L3 28L2 28L2 29L4 29L4 27L5 27L5 29L7 29L7 28L6 28L6 27L8 27L8 28L9 28L9 27L8 27L8 25L9 25L9 24L10 24L10 25L11 25L11 24L10 24L10 23L12 23L12 24L13 24L13 23L14 23L14 25L13 25L13 26L14 26L14 27L13 27L13 28L12 28L12 27L10 27L10 28L11 28L11 29L10 29L10 30L9 30L9 29L8 29L8 30L9 30L9 32L8 32L8 35L11 35L11 37L12 37L12 34L9 34L9 32L10 32L10 33L11 33L11 31L12 31L12 30L11 30L11 29L13 29L13 28L16 28L16 26L18 26L18 24L20 24L20 25L19 25L19 26L21 26L21 27L18 27L18 29L19 29L19 28L22 28L22 29L23 29L23 30L24 30L24 31L23 31L23 32L22 32L22 30L21 30L21 29L20 29L20 30L18 30L18 31L17 31L17 30L16 30L16 29L15 29L15 30L14 30L14 31L15 31L15 32L17 32L17 35L16 35L16 33L15 33L15 36L13 36L13 37L16 37L16 36L17 36L17 35L18 35L18 34L21 34L21 35L22 35L22 36L21 36L21 37L22 37L22 36L23 36L23 37L25 37L25 36L24 36L24 35L25 35L25 34L21 34L21 33L19 33L19 31L20 31L20 32L22 32L22 33L23 33L23 32L24 32L24 33L26 33L26 32L27 32L27 33L30 33L30 34L31 34L31 35L27 35L27 34L26 34L26 35L27 35L27 36L26 36L26 37L28 37L28 36L30 36L30 37L31 37L31 36L32 36L32 34L33 34L33 35L34 35L34 34L35 34L35 32L36 32L36 33L37 33L37 32L36 32L36 31L37 31L37 30L35 30L35 32L34 32L34 33L33 33L33 31L34 31L34 30L33 30L33 29L36 29L36 27L37 27L37 26L36 26L36 25L35 25L35 24L36 24L36 23L37 23L37 22L34 22L34 21L37 21L37 18L35 18L35 16L36 16L36 17L37 17L37 14L35 14L35 13L34 13L34 12L33 12L33 11L34 11L34 10L35 10L35 12L36 12L36 13L37 13L37 12L36 12L36 11L37 11L37 10L35 10L35 9L37 9L37 8L34 8L34 9L32 9L32 8L29 8L29 4L28 4L28 2L29 2L29 0L28 0L28 1L27 1L27 0L25 0L25 1L21 1L21 0L18 0L18 1L17 1L17 2L16 2L16 3L17 3L17 5L16 5L16 4L15 4L15 5L14 5L14 4L13 4L13 3L14 3L14 1L15 1L15 0ZM10 1L10 2L11 2L11 3L12 3L12 1ZM18 1L18 2L19 2L19 4L18 4L18 5L17 5L17 7L18 7L18 5L19 5L19 4L20 4L20 3L21 3L21 4L22 4L22 3L23 3L23 2L22 2L22 3L21 3L21 1L20 1L20 2L19 2L19 1ZM25 1L25 2L24 2L24 3L26 3L26 4L27 4L27 5L28 5L28 4L27 4L27 1ZM12 4L12 6L11 6L11 7L10 7L10 6L9 6L9 8L10 8L10 9L9 9L9 11L5 11L5 12L7 12L7 13L5 13L5 14L4 14L4 15L2 15L2 14L1 14L1 15L2 15L2 16L3 16L3 18L4 18L4 19L3 19L3 21L4 21L4 19L6 19L6 18L7 18L7 17L6 17L6 16L7 16L7 15L6 15L6 16L5 16L5 14L7 14L7 13L8 13L8 14L9 14L9 13L8 13L8 12L9 12L9 11L11 11L11 10L12 10L12 12L10 12L10 14L11 14L11 13L12 13L12 12L15 12L15 13L14 13L14 14L13 14L13 16L14 16L14 17L13 17L13 19L15 19L15 18L16 18L16 20L14 20L14 21L13 21L13 22L12 22L12 23L13 23L13 22L14 22L14 23L15 23L15 25L17 25L17 24L16 24L16 21L18 21L18 19L19 19L19 18L20 18L20 20L19 20L19 21L20 21L20 22L19 22L19 23L20 23L20 24L21 24L21 25L22 25L22 28L23 28L23 29L24 29L24 30L25 30L25 31L24 31L24 32L26 32L26 31L27 31L27 32L28 32L28 31L27 31L27 30L28 30L28 27L29 27L29 28L31 28L31 27L32 27L32 28L35 28L35 26L34 26L34 25L33 25L33 24L35 24L35 23L34 23L34 22L33 22L33 21L32 21L32 22L31 22L31 23L32 23L32 24L31 24L31 26L27 26L27 29L26 29L26 30L25 30L25 29L24 29L24 27L25 27L25 28L26 28L26 27L25 27L25 26L24 26L24 25L30 25L30 24L28 24L28 23L27 23L27 22L29 22L29 23L30 23L30 21L29 21L29 20L28 20L28 19L24 19L24 18L28 18L28 17L29 17L29 16L28 16L28 17L25 17L25 16L27 16L27 14L28 14L28 15L30 15L30 16L31 16L31 15L32 15L32 14L33 14L33 13L32 13L32 12L31 12L31 13L30 13L30 9L28 9L28 6L27 6L27 7L26 7L26 6L25 6L25 7L24 7L24 6L23 6L23 7L24 7L24 9L23 9L23 8L22 8L22 5L20 5L20 6L19 6L19 8L18 8L18 9L16 9L16 5L15 5L15 8L11 8L11 7L12 7L12 6L13 6L13 7L14 7L14 6L13 6L13 4ZM23 4L23 5L25 5L25 4ZM20 6L20 7L21 7L21 6ZM25 7L25 8L26 8L26 9L25 9L25 10L24 10L24 11L23 11L23 10L22 10L22 8L21 8L21 10L18 10L18 11L21 11L21 12L20 12L20 13L19 13L19 12L18 12L18 13L15 13L15 14L14 14L14 15L15 15L15 14L16 14L16 15L17 15L17 14L18 14L18 13L19 13L19 14L20 14L20 17L22 17L22 18L21 18L21 20L20 20L20 21L21 21L21 20L22 20L22 21L24 21L24 22L23 22L23 23L22 23L22 22L21 22L21 23L22 23L22 24L23 24L23 23L24 23L24 22L25 22L25 21L26 21L26 22L27 22L27 20L24 20L24 19L23 19L23 17L24 17L24 16L25 16L25 13L29 13L29 14L30 14L30 15L31 15L31 14L30 14L30 13L29 13L29 12L28 12L28 11L29 11L29 10L28 10L28 9L27 9L27 8L26 8L26 7ZM6 8L6 9L7 9L7 8ZM0 9L0 10L1 10L1 9ZM12 9L12 10L13 10L13 9ZM15 9L15 12L17 12L17 11L16 11L16 9ZM26 9L26 10L25 10L25 11L24 11L24 12L27 12L27 11L26 11L26 10L27 10L27 9ZM31 10L31 11L32 11L32 10ZM21 13L21 16L22 16L22 17L23 17L23 15L22 15L22 13ZM34 14L34 15L33 15L33 17L32 17L32 18L34 18L34 19L33 19L33 20L36 20L36 19L35 19L35 18L34 18L34 16L35 16L35 14ZM8 15L8 16L9 16L9 17L10 17L10 18L8 18L8 19L10 19L10 18L11 18L11 17L12 17L12 15ZM18 15L18 16L17 16L17 18L19 18L19 17L18 17L18 16L19 16L19 15ZM10 16L10 17L11 17L11 16ZM5 17L5 18L6 18L6 17ZM14 17L14 18L15 18L15 17ZM30 17L30 20L31 20L31 17ZM22 19L22 20L23 20L23 19ZM14 21L14 22L15 22L15 21ZM3 22L3 23L4 23L4 22ZM6 22L6 23L7 23L7 22ZM17 22L17 23L18 23L18 22ZM26 23L26 24L27 24L27 23ZM6 25L6 26L5 26L5 27L6 27L6 26L7 26L7 25ZM29 29L29 32L32 32L32 29ZM10 30L10 31L11 31L11 30ZM20 30L20 31L21 31L21 30ZM30 30L30 31L31 31L31 30ZM13 33L13 35L14 35L14 33ZM31 33L31 34L32 34L32 33ZM36 34L36 36L33 36L33 37L37 37L37 34ZM9 36L9 37L10 37L10 36ZM18 36L18 37L19 37L19 36ZM0 0L0 7L7 7L7 0ZM1 1L1 6L6 6L6 1ZM2 2L2 5L5 5L5 2ZM30 0L30 7L37 7L37 0ZM31 1L31 6L36 6L36 1ZM32 2L32 5L35 5L35 2ZM0 30L0 37L7 37L7 30ZM1 31L1 36L6 36L6 31ZM2 32L2 35L5 35L5 32Z" fill="#000000"/></g></g></svg>
