<?xml version="1.0" encoding="UTF-8"?>
<svg xmlns="http://www.w3.org/2000/svg" version="1.1" width="300" height="300" viewBox="0 0 300 300"><rect x="0" y="0" width="300" height="300" fill="#ffffff"/><g transform="scale(8.108)"><g transform="translate(0,0)"><path fill-rule="evenodd" d="M11 0L11 2L12 2L12 3L11 3L11 4L10 4L10 2L9 2L9 1L8 1L8 2L9 2L9 5L8 5L8 8L4 8L4 9L2 9L2 10L5 10L5 11L9 11L9 13L8 13L8 12L6 12L6 13L8 13L8 14L6 14L6 15L4 15L4 16L3 16L3 15L1 15L1 16L2 16L2 17L3 17L3 18L1 18L1 19L0 19L0 20L1 20L1 21L0 21L0 23L1 23L1 21L2 21L2 23L3 23L3 24L0 24L0 26L1 26L1 25L2 25L2 26L4 26L4 28L3 28L3 27L2 27L2 28L0 28L0 29L2 29L2 28L3 28L3 29L4 29L4 28L5 28L5 29L8 29L8 33L9 33L9 35L10 35L10 36L12 36L12 35L15 35L15 36L16 36L16 35L17 35L17 36L18 36L18 37L19 37L19 36L20 36L20 35L21 35L21 36L22 36L22 37L25 37L25 35L26 35L26 36L28 36L28 35L31 35L31 36L30 36L30 37L33 37L33 36L32 36L32 33L34 33L34 34L33 34L33 35L34 35L34 37L37 37L37 36L36 36L36 34L35 34L35 30L34 30L34 28L35 28L35 29L36 29L36 28L37 28L37 27L36 27L36 28L35 28L35 27L34 27L34 28L32 28L32 27L31 27L31 26L33 26L33 24L32 24L32 23L31 23L31 24L30 24L30 25L28 25L28 24L27 24L27 23L28 23L28 20L27 20L27 21L25 21L25 19L28 19L28 18L30 18L30 20L29 20L29 23L30 23L30 22L31 22L31 20L33 20L33 19L34 19L34 21L35 21L35 22L37 22L37 20L36 20L36 19L35 19L35 11L34 11L34 10L35 10L35 9L36 9L36 8L35 8L35 9L34 9L34 10L32 10L32 11L31 11L31 12L30 12L30 10L31 10L31 9L32 9L32 8L30 8L30 10L29 10L29 11L28 11L28 10L27 10L27 9L29 9L29 8L27 8L27 9L26 9L26 7L27 7L27 6L26 6L26 7L25 7L25 5L23 5L23 3L22 3L22 2L24 2L24 3L25 3L25 4L26 4L26 3L27 3L27 5L28 5L28 7L29 7L29 0L27 0L27 1L28 1L28 2L26 2L26 1L22 1L22 2L21 2L21 0L20 0L20 1L19 1L19 4L20 4L20 7L19 7L19 5L18 5L18 4L17 4L17 3L16 3L16 4L17 4L17 5L14 5L14 7L13 7L13 5L12 5L12 8L14 8L14 9L12 9L12 13L11 13L11 11L9 11L9 10L10 10L10 9L9 9L9 10L8 10L8 8L9 8L9 5L10 5L10 8L11 8L11 4L13 4L13 3L15 3L15 2L16 2L16 0L15 0L15 1L14 1L14 0ZM13 1L13 2L14 2L14 1ZM17 1L17 2L18 2L18 1ZM25 2L25 3L26 3L26 2ZM20 3L20 4L21 4L21 3ZM17 5L17 7L16 7L16 6L15 6L15 7L14 7L14 8L16 8L16 9L15 9L15 10L13 10L13 14L10 14L10 16L11 16L11 17L12 17L12 18L13 18L13 20L11 20L11 18L10 18L10 17L8 17L8 16L9 16L9 15L8 15L8 16L7 16L7 15L6 15L6 16L7 16L7 17L6 17L6 18L8 18L8 19L3 19L3 20L2 20L2 21L3 21L3 23L4 23L4 24L3 24L3 25L6 25L6 26L8 26L8 27L6 27L6 28L8 28L8 27L9 27L9 31L10 31L10 33L11 33L11 34L10 34L10 35L11 35L11 34L12 34L12 32L11 32L11 31L12 31L12 30L13 30L13 32L15 32L15 31L14 31L14 30L13 30L13 29L11 29L11 28L12 28L12 27L11 27L11 26L13 26L13 27L14 27L14 25L15 25L15 26L16 26L16 25L15 25L15 24L18 24L18 26L17 26L17 27L16 27L16 28L15 28L15 30L16 30L16 33L15 33L15 34L17 34L17 35L18 35L18 34L19 34L19 35L20 35L20 34L22 34L22 35L23 35L23 36L24 36L24 35L25 35L25 33L26 33L26 31L27 31L27 34L26 34L26 35L28 35L28 34L30 34L30 33L28 33L28 30L26 30L26 29L27 29L27 28L29 28L29 27L28 27L28 25L25 25L25 24L26 24L26 23L27 23L27 22L25 22L25 24L23 24L23 25L22 25L22 24L20 24L20 25L19 25L19 23L21 23L21 22L22 22L22 23L24 23L24 21L22 21L22 19L21 19L21 22L18 22L18 23L17 23L17 22L14 22L14 23L15 23L15 24L14 24L14 25L13 25L13 20L14 20L14 21L15 21L15 20L14 20L14 19L15 19L15 17L14 17L14 16L15 16L15 15L14 15L14 13L15 13L15 14L16 14L16 18L17 18L17 13L19 13L19 16L20 16L20 14L21 14L21 18L22 18L22 17L23 17L23 18L24 18L24 19L23 19L23 20L24 20L24 19L25 19L25 17L29 17L29 16L30 16L30 15L32 15L32 14L31 14L31 13L30 13L30 12L27 12L27 11L26 11L26 9L25 9L25 8L24 8L24 6L23 6L23 5L21 5L21 7L22 7L22 6L23 6L23 8L21 8L21 10L22 10L22 12L21 12L21 11L18 11L18 10L19 10L19 7L18 7L18 5ZM17 8L17 9L18 9L18 8ZM23 8L23 9L22 9L22 10L23 10L23 9L24 9L24 11L23 11L23 12L22 12L22 13L21 13L21 14L23 14L23 12L24 12L24 15L22 15L22 16L24 16L24 15L25 15L25 14L27 14L27 15L28 15L28 16L29 16L29 15L30 15L30 13L25 13L25 12L24 12L24 11L25 11L25 9L24 9L24 8ZM0 9L0 13L2 13L2 14L4 14L4 13L5 13L5 12L4 12L4 13L2 13L2 12L1 12L1 9ZM5 9L5 10L7 10L7 9ZM15 10L15 13L17 13L17 12L16 12L16 11L17 11L17 10ZM33 11L33 12L32 12L32 13L33 13L33 14L34 14L34 13L33 13L33 12L34 12L34 11ZM36 11L36 13L37 13L37 11ZM19 12L19 13L20 13L20 12ZM28 14L28 15L29 15L29 14ZM11 15L11 16L12 16L12 17L13 17L13 18L14 18L14 17L13 17L13 16L12 16L12 15ZM33 15L33 16L31 16L31 17L30 17L30 18L32 18L32 17L33 17L33 16L34 16L34 15ZM4 16L4 18L5 18L5 16ZM36 16L36 17L37 17L37 16ZM19 17L19 18L20 18L20 17ZM8 19L8 20L6 20L6 21L7 21L7 22L5 22L5 20L3 20L3 21L4 21L4 22L5 22L5 24L6 24L6 25L7 25L7 24L6 24L6 23L8 23L8 24L9 24L9 25L8 25L8 26L9 26L9 27L10 27L10 28L11 28L11 27L10 27L10 25L11 25L11 23L12 23L12 22L11 22L11 21L10 21L10 19ZM18 19L18 20L16 20L16 21L18 21L18 20L19 20L19 21L20 21L20 19ZM8 20L8 21L9 21L9 20ZM32 21L32 22L33 22L33 21ZM9 22L9 23L11 23L11 22ZM34 23L34 25L35 25L35 26L36 26L36 25L37 25L37 23L36 23L36 25L35 25L35 23ZM24 25L24 26L21 26L21 27L19 27L19 26L18 26L18 27L19 27L19 31L18 31L18 29L17 29L17 28L16 28L16 30L17 30L17 32L19 32L19 34L20 34L20 32L21 32L21 33L25 33L25 31L24 31L24 29L23 29L23 28L24 28L24 27L26 27L26 28L27 28L27 26L25 26L25 25ZM20 29L20 31L19 31L19 32L20 32L20 31L21 31L21 29ZM22 29L22 30L23 30L23 29ZM29 29L29 32L32 32L32 29ZM10 30L10 31L11 31L11 30ZM30 30L30 31L31 31L31 30ZM23 31L23 32L24 32L24 31ZM33 31L33 32L34 32L34 31ZM36 31L36 33L37 33L37 31ZM17 33L17 34L18 34L18 33ZM0 0L0 7L7 7L7 0ZM1 1L1 6L6 6L6 1ZM2 2L2 5L5 5L5 2ZM30 0L30 7L37 7L37 0ZM31 1L31 6L36 6L36 1ZM32 2L32 5L35 5L35 2ZM0 30L0 37L7 37L7 30ZM1 31L1 36L6 36L6 31ZM2 32L2 35L5 35L5 32Z" fill="#000000"/></g></g></svg>
