<?xml version="1.0" encoding="UTF-8"?>
<svg xmlns="http://www.w3.org/2000/svg" version="1.1" width="300" height="300" viewBox="0 0 300 300"><rect x="0" y="0" width="300" height="300" fill="#ffffff"/><g transform="scale(8.108)"><g transform="translate(0,0)"><path fill-rule="evenodd" d="M8 0L8 3L9 3L9 4L10 4L10 5L8 5L8 10L6 10L6 11L9 11L9 10L10 10L10 8L9 8L9 6L10 6L10 7L11 7L11 9L12 9L12 10L11 10L11 11L10 11L10 12L12 12L12 13L10 13L10 14L8 14L8 13L9 13L9 12L8 12L8 13L7 13L7 12L6 12L6 13L7 13L7 14L5 14L5 17L7 17L7 18L6 18L6 19L4 19L4 18L3 18L3 17L2 17L2 16L3 16L3 15L4 15L4 12L5 12L5 11L4 11L4 9L5 9L5 8L2 8L2 9L0 9L0 10L2 10L2 13L1 13L1 12L0 12L0 13L1 13L1 14L0 14L0 16L1 16L1 18L0 18L0 19L2 19L2 21L3 21L3 22L2 22L2 23L1 23L1 21L0 21L0 29L1 29L1 24L2 24L2 23L3 23L3 26L2 26L2 28L3 28L3 26L6 26L6 27L5 27L5 28L6 28L6 29L7 29L7 28L6 28L6 27L8 27L8 28L9 28L9 29L8 29L8 30L9 30L9 29L10 29L10 31L9 31L9 32L8 32L8 35L12 35L12 34L9 34L9 33L11 33L11 31L12 31L12 30L11 30L11 29L13 29L13 28L16 28L16 29L15 29L15 30L14 30L14 31L15 31L15 30L17 30L17 28L16 28L16 27L15 27L15 24L14 24L14 25L13 25L13 26L14 26L14 27L13 27L13 28L12 28L12 27L11 27L11 26L10 26L10 28L9 28L9 27L8 27L8 25L9 25L9 24L10 24L10 25L11 25L11 24L10 24L10 23L12 23L12 24L13 24L13 23L12 23L12 22L14 22L14 23L15 23L15 22L14 22L14 19L15 19L15 20L16 20L16 18L15 18L15 17L16 17L16 15L15 15L15 14L17 14L17 13L19 13L19 14L18 14L18 15L19 15L19 14L20 14L20 17L21 17L21 18L23 18L23 17L24 17L24 16L25 16L25 17L27 17L27 16L29 16L29 17L28 17L28 18L27 18L27 19L28 19L28 20L30 20L30 21L29 21L29 22L27 22L27 21L26 21L26 20L24 20L24 19L25 19L25 18L24 18L24 19L21 19L21 20L23 20L23 21L24 21L24 22L23 22L23 23L24 23L24 22L25 22L25 21L26 21L26 22L27 22L27 23L26 23L26 24L27 24L27 23L28 23L28 24L30 24L30 25L24 25L24 26L25 26L25 27L24 27L24 28L25 28L25 29L23 29L23 28L22 28L22 25L23 25L23 24L20 24L20 25L19 25L19 26L17 26L17 25L18 25L18 24L19 24L19 23L22 23L22 22L20 22L20 21L19 21L19 19L20 19L20 18L19 18L19 16L17 16L17 18L19 18L19 19L18 19L18 21L16 21L16 24L17 24L17 25L16 25L16 26L17 26L17 27L19 27L19 28L18 28L18 30L19 30L19 31L17 31L17 32L18 32L18 33L17 33L17 35L16 35L16 33L15 33L15 34L14 34L14 35L13 35L13 36L11 36L11 37L16 37L16 36L17 36L17 35L18 35L18 34L20 34L20 35L22 35L22 36L23 36L23 37L24 37L24 35L25 35L25 34L23 34L23 35L22 35L22 33L26 33L26 32L27 32L27 34L26 34L26 37L28 37L28 36L30 36L30 37L31 37L31 36L32 36L32 34L33 34L33 35L34 35L34 34L35 34L35 32L36 32L36 33L37 33L37 32L36 32L36 31L37 31L37 30L35 30L35 32L34 32L34 33L33 33L33 31L34 31L34 30L33 30L33 29L34 29L34 28L32 28L32 27L33 27L33 26L32 26L32 27L31 27L31 28L29 28L29 27L28 27L28 29L27 29L27 26L31 26L31 24L32 24L32 23L31 23L31 22L32 22L32 21L33 21L33 22L34 22L34 23L37 23L37 18L35 18L35 16L36 16L36 17L37 17L37 14L35 14L35 12L36 12L36 13L37 13L37 12L36 12L36 11L37 11L37 10L35 10L35 9L37 9L37 8L34 8L34 9L32 9L32 8L29 8L29 4L28 4L28 2L29 2L29 0L28 0L28 1L27 1L27 0L26 0L26 1L23 1L23 2L21 2L21 3L20 3L20 0L18 0L18 1L17 1L17 2L16 2L16 3L17 3L17 5L16 5L16 4L15 4L15 5L14 5L14 4L13 4L13 3L14 3L14 2L13 2L13 3L12 3L12 2L10 2L10 1L11 1L11 0ZM12 0L12 1L13 1L13 0ZM14 0L14 1L15 1L15 0ZM21 0L21 1L22 1L22 0ZM18 1L18 2L19 2L19 1ZM26 1L26 2L24 2L24 3L27 3L27 1ZM11 3L11 4L12 4L12 5L13 5L13 7L12 7L12 6L11 6L11 7L12 7L12 9L13 9L13 10L12 10L12 12L15 12L15 13L14 13L14 14L13 14L13 16L12 16L12 15L11 15L11 16L9 16L9 15L8 15L8 17L10 17L10 18L7 18L7 19L6 19L6 20L5 20L5 24L4 24L4 25L6 25L6 26L7 26L7 25L6 25L6 24L7 24L7 23L10 23L10 21L11 21L11 22L12 22L12 21L13 21L13 20L12 20L12 19L13 19L13 18L11 18L11 17L13 17L13 16L14 16L14 17L15 17L15 15L14 15L14 14L15 14L15 13L17 13L17 12L19 12L19 13L20 13L20 12L21 12L21 11L19 11L19 10L21 10L21 9L22 9L22 10L23 10L23 7L24 7L24 8L25 8L25 9L26 9L26 10L24 10L24 12L23 12L23 13L25 13L25 14L23 14L23 15L22 15L22 13L21 13L21 16L22 16L22 17L23 17L23 16L24 16L24 15L25 15L25 16L27 16L27 14L28 14L28 15L30 15L30 16L31 16L31 15L32 15L32 14L33 14L33 13L34 13L34 12L35 12L35 11L34 11L34 10L33 10L33 13L32 13L32 12L31 12L31 13L30 13L30 9L28 9L28 6L27 6L27 7L26 7L26 6L25 6L25 7L24 7L24 6L23 6L23 5L25 5L25 4L22 4L22 3L21 3L21 4L20 4L20 3L19 3L19 4L18 4L18 5L17 5L17 7L18 7L18 5L19 5L19 4L20 4L20 6L19 6L19 7L20 7L20 8L18 8L18 11L17 11L17 9L16 9L16 5L15 5L15 9L13 9L13 8L14 8L14 5L13 5L13 4L12 4L12 3ZM27 4L27 5L28 5L28 4ZM20 6L20 7L21 7L21 8L22 8L22 7L23 7L23 6L22 6L22 7L21 7L21 6ZM25 7L25 8L26 8L26 9L27 9L27 10L26 10L26 11L27 11L27 12L25 12L25 13L28 13L28 14L30 14L30 15L31 15L31 14L30 14L30 13L28 13L28 11L29 11L29 10L28 10L28 9L27 9L27 8L26 8L26 7ZM6 8L6 9L7 9L7 8ZM15 9L15 10L16 10L16 9ZM31 10L31 11L32 11L32 10ZM3 11L3 12L4 12L4 11ZM2 13L2 14L1 14L1 15L3 15L3 13ZM34 14L34 15L33 15L33 17L32 17L32 18L34 18L34 19L33 19L33 20L36 20L36 19L35 19L35 18L34 18L34 16L35 16L35 14ZM6 15L6 16L7 16L7 15ZM30 17L30 20L31 20L31 17ZM10 18L10 19L9 19L9 20L11 20L11 21L12 21L12 20L11 20L11 18ZM3 19L3 21L4 21L4 19ZM7 19L7 20L6 20L6 21L7 21L7 22L6 22L6 23L7 23L7 22L9 22L9 21L8 21L8 19ZM30 21L30 22L29 22L29 23L30 23L30 22L31 22L31 21ZM34 21L34 22L36 22L36 21ZM3 22L3 23L4 23L4 22ZM17 22L17 23L18 23L18 22ZM33 24L33 25L35 25L35 29L36 29L36 27L37 27L37 26L36 26L36 25L37 25L37 24ZM19 26L19 27L21 27L21 26ZM25 27L25 28L26 28L26 27ZM10 28L10 29L11 29L11 28ZM19 28L19 30L20 30L20 31L19 31L19 33L20 33L20 31L21 31L21 30L22 30L22 32L21 32L21 33L22 33L22 32L24 32L24 30L23 30L23 29L22 29L22 28ZM20 29L20 30L21 30L21 29ZM26 29L26 30L25 30L25 32L26 32L26 31L27 31L27 32L28 32L28 30L27 30L27 29ZM29 29L29 32L32 32L32 29ZM30 30L30 31L31 31L31 30ZM12 32L12 33L13 33L13 32ZM28 33L28 34L27 34L27 35L31 35L31 34L32 34L32 33L31 33L31 34L30 34L30 33ZM36 34L36 36L33 36L33 37L37 37L37 34ZM9 36L9 37L10 37L10 36ZM18 36L18 37L20 37L20 36ZM0 0L0 7L7 7L7 0ZM1 1L1 6L6 6L6 1ZM2 2L2 5L5 5L5 2ZM30 0L30 7L37 7L37 0ZM31 1L31 6L36 6L36 1ZM32 2L32 5L35 5L35 2ZM0 30L0 37L7 37L7 30ZM1 31L1 36L6 36L6 31ZM2 32L2 35L5 35L5 32Z" fill="#000000"/></g></g></svg>
