<?xml version="1.0" encoding="UTF-8"?>
<svg xmlns="http://www.w3.org/2000/svg" version="1.1" width="300" height="300" viewBox="0 0 300 300"><rect x="0" y="0" width="300" height="300" fill="#ffffff"/><g transform="scale(8.108)"><g transform="translate(0,0)"><path fill-rule="evenodd" d="M8 0L8 1L9 1L9 2L10 2L10 1L12 1L12 2L11 2L11 3L8 3L8 4L9 4L9 6L8 6L8 7L9 7L9 6L10 6L10 7L11 7L11 5L12 5L12 4L13 4L13 3L14 3L14 2L15 2L15 3L16 3L16 2L15 2L15 1L17 1L17 0L15 0L15 1L14 1L14 2L13 2L13 0L10 0L10 1L9 1L9 0ZM18 0L18 2L17 2L17 3L19 3L19 1L21 1L21 2L20 2L20 4L19 4L19 6L18 6L18 4L16 4L16 8L15 8L15 5L13 5L13 6L12 6L12 8L13 8L13 10L14 10L14 11L12 11L12 9L11 9L11 8L10 8L10 9L11 9L11 11L12 11L12 13L14 13L14 11L16 11L16 12L15 12L15 15L16 15L16 16L14 16L14 15L13 15L13 14L11 14L11 12L10 12L10 13L9 13L9 14L11 14L11 15L9 15L9 16L5 16L5 15L8 15L8 14L6 14L6 13L7 13L7 12L8 12L8 10L9 10L9 11L10 11L10 10L9 10L9 8L8 8L8 9L7 9L7 8L4 8L4 10L3 10L3 8L2 8L2 11L0 11L0 15L1 15L1 12L2 12L2 11L5 11L5 10L6 10L6 11L7 11L7 12L6 12L6 13L5 13L5 12L4 12L4 13L3 13L3 14L2 14L2 15L4 15L4 16L1 16L1 17L0 17L0 18L1 18L1 19L0 19L0 23L1 23L1 22L2 22L2 21L1 21L1 19L2 19L2 20L3 20L3 24L2 24L2 26L3 26L3 27L1 27L1 26L0 26L0 27L1 27L1 28L0 28L0 29L1 29L1 28L2 28L2 29L4 29L4 28L5 28L5 27L7 27L7 28L6 28L6 29L7 29L7 28L8 28L8 30L9 30L9 31L8 31L8 33L9 33L9 32L12 32L12 33L10 33L10 34L12 34L12 33L13 33L13 32L14 32L14 33L15 33L15 34L16 34L16 35L11 35L11 36L10 36L10 37L13 37L13 36L16 36L16 37L17 37L17 36L18 36L18 37L21 37L21 36L23 36L23 37L24 37L24 36L25 36L25 37L27 37L27 36L28 36L28 37L29 37L29 34L30 34L30 33L31 33L31 35L33 35L33 34L34 34L34 35L35 35L35 37L37 37L37 36L36 36L36 35L37 35L37 29L36 29L36 28L37 28L37 25L36 25L36 24L37 24L37 22L36 22L36 21L37 21L37 20L36 20L36 19L37 19L37 16L36 16L36 17L34 17L34 16L33 16L33 15L32 15L32 16L31 16L31 14L32 14L32 13L31 13L31 12L30 12L30 11L31 11L31 10L30 10L30 8L29 8L29 5L28 5L28 3L29 3L29 1L28 1L28 0L27 0L27 1L26 1L26 0L25 0L25 1L26 1L26 3L25 3L25 5L26 5L26 7L27 7L27 6L28 6L28 8L27 8L27 10L28 10L28 8L29 8L29 10L30 10L30 11L29 11L29 12L28 12L28 11L27 11L27 12L28 12L28 15L27 15L27 14L26 14L26 11L24 11L24 12L25 12L25 14L26 14L26 15L24 15L24 13L22 13L22 14L21 14L21 13L20 13L20 14L21 14L21 15L18 15L18 16L17 16L17 15L16 15L16 12L18 12L18 14L19 14L19 12L20 12L20 9L21 9L21 10L23 10L23 9L24 9L24 10L25 10L25 6L24 6L24 8L23 8L23 5L21 5L21 2L23 2L23 3L22 3L22 4L23 4L23 3L24 3L24 2L23 2L23 0L22 0L22 1L21 1L21 0ZM27 2L27 3L28 3L28 2ZM10 4L10 5L11 5L11 4ZM20 5L20 6L19 6L19 7L18 7L18 6L17 6L17 8L16 8L16 9L14 9L14 10L16 10L16 9L17 9L17 8L18 8L18 9L19 9L19 8L20 8L20 6L21 6L21 7L22 7L22 6L21 6L21 5ZM13 6L13 8L14 8L14 6ZM33 8L33 9L32 9L32 10L33 10L33 11L32 11L32 12L33 12L33 11L36 11L36 13L33 13L33 14L34 14L34 15L37 15L37 8L36 8L36 9L34 9L34 8ZM6 9L6 10L7 10L7 9ZM33 9L33 10L34 10L34 9ZM17 10L17 11L19 11L19 10ZM21 11L21 12L23 12L23 11ZM29 12L29 16L30 16L30 12ZM22 14L22 15L21 15L21 16L18 16L18 17L15 17L15 19L14 19L14 20L13 20L13 21L14 21L14 23L15 23L15 24L14 24L14 25L13 25L13 22L12 22L12 21L11 21L11 22L10 22L10 21L9 21L9 18L8 18L8 17L6 17L6 18L5 18L5 16L4 16L4 17L3 17L3 18L2 18L2 17L1 17L1 18L2 18L2 19L3 19L3 20L4 20L4 21L6 21L6 22L4 22L4 23L6 23L6 24L5 24L5 25L3 25L3 26L9 26L9 24L7 24L7 23L9 23L9 22L10 22L10 26L11 26L11 28L10 28L10 27L9 27L9 29L10 29L10 31L11 31L11 28L12 28L12 27L13 27L13 29L14 29L14 30L12 30L12 31L14 31L14 32L15 32L15 31L18 31L18 33L16 33L16 34L18 34L18 35L19 35L19 36L20 36L20 32L19 32L19 31L18 31L18 29L20 29L20 25L22 25L22 24L23 24L23 25L24 25L24 26L23 26L23 27L22 27L22 26L21 26L21 27L22 27L22 29L21 29L21 31L22 31L22 33L21 33L21 35L22 35L22 34L23 34L23 33L24 33L24 30L23 30L23 29L24 29L24 28L25 28L25 26L26 26L26 27L27 27L27 28L26 28L26 29L25 29L25 31L26 31L26 30L28 30L28 29L27 29L27 28L28 28L28 27L27 27L27 26L26 26L26 24L23 24L23 22L22 22L22 21L23 21L23 20L24 20L24 18L22 18L22 16L23 16L23 14ZM12 15L12 16L11 16L11 17L12 17L12 16L13 16L13 15ZM26 15L26 18L25 18L25 19L26 19L26 20L28 20L28 19L29 19L29 21L27 21L27 24L28 24L28 23L29 23L29 27L31 27L31 28L32 28L32 26L33 26L33 32L34 32L34 33L36 33L36 31L34 31L34 30L35 30L35 29L34 29L34 28L36 28L36 27L34 27L34 25L35 25L35 26L36 26L36 25L35 25L35 19L34 19L34 17L33 17L33 16L32 16L32 17L31 17L31 18L30 18L30 17L29 17L29 18L28 18L28 16L27 16L27 15ZM9 16L9 17L10 17L10 16ZM24 16L24 17L25 17L25 16ZM18 17L18 18L19 18L19 17ZM20 17L20 19L22 19L22 18L21 18L21 17ZM4 18L4 20L5 20L5 18ZM6 18L6 19L7 19L7 20L6 20L6 21L8 21L8 18ZM10 18L10 19L11 19L11 18ZM12 18L12 19L13 19L13 18ZM16 18L16 19L15 19L15 20L14 20L14 21L16 21L16 22L15 22L15 23L16 23L16 24L15 24L15 25L14 25L14 26L16 26L16 27L17 27L17 28L16 28L16 29L18 29L18 28L19 28L19 25L20 25L20 23L19 23L19 22L20 22L20 21L19 21L19 20L18 20L18 19L17 19L17 18ZM29 18L29 19L30 19L30 23L31 23L31 21L32 21L32 20L33 20L33 19L32 19L32 18L31 18L31 19L30 19L30 18ZM16 19L16 20L17 20L17 22L16 22L16 23L17 23L17 24L18 24L18 25L16 25L16 26L18 26L18 25L19 25L19 23L18 23L18 22L19 22L19 21L18 21L18 20L17 20L17 19ZM31 19L31 20L32 20L32 19ZM21 20L21 21L22 21L22 20ZM24 21L24 23L26 23L26 22L25 22L25 21ZM33 21L33 22L32 22L32 23L34 23L34 21ZM6 22L6 23L7 23L7 22ZM11 22L11 24L12 24L12 22ZM0 24L0 25L1 25L1 24ZM6 24L6 25L7 25L7 24ZM30 24L30 25L31 25L31 26L32 26L32 25L33 25L33 24L32 24L32 25L31 25L31 24ZM11 25L11 26L13 26L13 25ZM14 27L14 29L15 29L15 27ZM23 27L23 28L24 28L24 27ZM29 29L29 32L32 32L32 29ZM22 30L22 31L23 31L23 30ZM30 30L30 31L31 31L31 30ZM27 31L27 33L26 33L26 34L27 34L27 35L28 35L28 34L29 34L29 33L28 33L28 31ZM18 33L18 34L19 34L19 33ZM8 34L8 35L9 35L9 34ZM35 34L35 35L36 35L36 34ZM23 35L23 36L24 36L24 35ZM30 36L30 37L31 37L31 36ZM32 36L32 37L33 37L33 36ZM0 0L0 7L7 7L7 0ZM1 1L1 6L6 6L6 1ZM2 2L2 5L5 5L5 2ZM30 0L30 7L37 7L37 0ZM31 1L31 6L36 6L36 1ZM32 2L32 5L35 5L35 2ZM0 30L0 37L7 37L7 30ZM1 31L1 36L6 36L6 31ZM2 32L2 35L5 35L5 32Z" fill="#000000"/></g></g></svg>
