<?xml version="1.0" encoding="UTF-8"?>
<svg xmlns="http://www.w3.org/2000/svg" version="1.1" width="300" height="300" viewBox="0 0 300 300"><rect x="0" y="0" width="300" height="300" fill="#ffffff"/><g transform="scale(8.108)"><g transform="translate(0,0)"><path fill-rule="evenodd" d="M8 0L8 3L9 3L9 4L10 4L10 5L8 5L8 10L4 10L4 11L2 11L2 13L1 13L1 12L0 12L0 13L1 13L1 14L0 14L0 16L1 16L1 18L0 18L0 19L2 19L2 20L0 20L0 23L3 23L3 24L5 24L5 20L6 20L6 21L7 21L7 22L6 22L6 23L9 23L9 24L6 24L6 25L5 25L5 27L4 27L4 25L3 25L3 27L4 27L4 28L2 28L2 29L4 29L4 28L5 28L5 27L8 27L8 28L9 28L9 27L10 27L10 25L12 25L12 24L14 24L14 25L13 25L13 26L14 26L14 27L13 27L13 28L12 28L12 27L11 27L11 28L10 28L10 29L8 29L8 30L10 30L10 31L9 31L9 32L8 32L8 35L11 35L11 37L13 37L13 36L14 36L14 34L13 34L13 33L10 33L10 34L9 34L9 32L10 32L10 31L12 31L12 30L11 30L11 29L13 29L13 28L15 28L15 21L13 21L13 22L12 22L12 21L10 21L10 23L9 23L9 21L8 21L8 20L11 20L11 19L12 19L12 20L16 20L16 18L15 18L15 17L14 17L14 16L13 16L13 14L14 14L14 15L16 15L16 16L18 16L18 17L17 17L17 18L18 18L18 17L19 17L19 14L20 14L20 20L19 20L19 19L18 19L18 21L16 21L16 25L18 25L18 24L19 24L19 26L21 26L21 27L18 27L18 26L17 26L17 28L16 28L16 31L15 31L15 30L14 30L14 31L15 31L15 37L16 37L16 36L17 36L17 35L18 35L18 34L20 34L20 35L19 35L19 36L18 36L18 37L21 37L21 36L20 36L20 35L21 35L21 32L22 32L22 33L26 33L26 32L27 32L27 34L26 34L26 35L27 35L27 36L25 36L25 37L28 37L28 36L30 36L30 37L31 37L31 36L32 36L32 34L33 34L33 35L34 35L34 34L35 34L35 32L36 32L36 33L37 33L37 32L36 32L36 31L37 31L37 30L35 30L35 32L34 32L34 33L33 33L33 31L34 31L34 30L33 30L33 29L34 29L34 28L33 28L33 27L31 27L31 28L29 28L29 27L28 27L28 29L27 29L27 26L31 26L31 24L32 24L32 23L31 23L31 22L32 22L32 21L33 21L33 22L34 22L34 23L36 23L36 25L35 25L35 24L33 24L33 25L35 25L35 26L34 26L34 27L35 27L35 29L36 29L36 27L37 27L37 26L36 26L36 25L37 25L37 22L36 22L36 21L37 21L37 18L35 18L35 16L36 16L36 17L37 17L37 14L35 14L35 12L36 12L36 13L37 13L37 12L36 12L36 11L37 11L37 10L35 10L35 9L37 9L37 8L34 8L34 9L32 9L32 8L29 8L29 4L28 4L28 2L29 2L29 0L28 0L28 1L27 1L27 0L26 0L26 1L23 1L23 2L22 2L22 4L25 4L25 5L22 5L22 7L23 7L23 8L21 8L21 10L19 10L19 11L18 11L18 8L19 8L19 9L20 9L20 7L21 7L21 6L20 6L20 5L21 5L21 0L20 0L20 2L18 2L18 1L17 1L17 2L16 2L16 3L17 3L17 5L16 5L16 4L15 4L15 0L14 0L14 1L13 1L13 0L11 0L11 2L10 2L10 0ZM12 1L12 3L11 3L11 5L12 5L12 3L13 3L13 5L14 5L14 6L13 6L13 7L14 7L14 6L15 6L15 8L11 8L11 7L12 7L12 6L11 6L11 7L10 7L10 6L9 6L9 8L10 8L10 10L9 10L9 11L6 11L6 12L4 12L4 13L2 13L2 14L1 14L1 15L3 15L3 14L4 14L4 16L2 16L2 17L3 17L3 18L4 18L4 19L3 19L3 21L2 21L2 22L3 22L3 23L4 23L4 22L3 22L3 21L4 21L4 19L6 19L6 20L8 20L8 19L10 19L10 18L9 18L9 17L8 17L8 19L6 19L6 18L7 18L7 17L6 17L6 18L5 18L5 17L4 17L4 16L7 16L7 15L6 15L6 14L7 14L7 13L8 13L8 14L9 14L9 15L8 15L8 16L10 16L10 17L11 17L11 18L12 18L12 19L14 19L14 18L13 18L13 16L12 16L12 15L10 15L10 13L12 13L12 12L15 12L15 10L14 10L14 9L17 9L17 8L16 8L16 5L14 5L14 3L13 3L13 1ZM24 2L24 3L26 3L26 4L27 4L27 5L28 5L28 4L27 4L27 2ZM19 3L19 4L18 4L18 5L17 5L17 7L18 7L18 5L20 5L20 3ZM19 6L19 7L20 7L20 6ZM23 6L23 7L24 7L24 8L25 8L25 9L23 9L23 10L24 10L24 11L25 11L25 12L23 12L23 13L24 13L24 14L23 14L23 15L22 15L22 13L21 13L21 16L22 16L22 17L23 17L23 18L22 18L22 19L24 19L24 20L25 20L25 22L24 22L24 21L23 21L23 20L20 20L20 21L19 21L19 22L20 22L20 21L22 21L22 22L21 22L21 23L22 23L22 22L24 22L24 23L23 23L23 25L22 25L22 28L17 28L17 30L20 30L20 31L19 31L19 32L16 32L16 35L17 35L17 33L20 33L20 31L21 31L21 30L22 30L22 32L24 32L24 31L25 31L25 32L26 32L26 31L27 31L27 32L28 32L28 30L27 30L27 29L26 29L26 30L25 30L25 28L26 28L26 27L25 27L25 26L24 26L24 25L30 25L30 24L28 24L28 23L27 23L27 22L29 22L29 23L30 23L30 21L29 21L29 20L28 20L28 19L27 19L27 22L26 22L26 18L28 18L28 17L29 17L29 16L28 16L28 17L25 17L25 16L27 16L27 14L29 14L29 15L30 15L30 16L31 16L31 15L32 15L32 14L33 14L33 13L32 13L32 12L31 12L31 13L30 13L30 9L28 9L28 6L27 6L27 7L26 7L26 6L25 6L25 7L24 7L24 6ZM25 7L25 8L26 8L26 9L25 9L25 10L26 10L26 11L27 11L27 12L25 12L25 13L29 13L29 14L30 14L30 15L31 15L31 14L30 14L30 13L29 13L29 12L28 12L28 11L29 11L29 10L28 10L28 9L27 9L27 8L26 8L26 7ZM2 8L2 9L5 9L5 8ZM6 8L6 9L7 9L7 8ZM0 9L0 10L1 10L1 9ZM12 9L12 10L11 10L11 11L10 11L10 12L8 12L8 13L10 13L10 12L12 12L12 10L13 10L13 9ZM26 9L26 10L27 10L27 9ZM16 10L16 11L17 11L17 10ZM31 10L31 11L32 11L32 10ZM19 11L19 12L18 12L18 13L17 13L17 12L16 12L16 14L18 14L18 13L20 13L20 12L21 12L21 11ZM33 11L33 12L35 12L35 11ZM6 12L6 13L5 13L5 14L6 14L6 13L7 13L7 12ZM14 13L14 14L15 14L15 13ZM24 14L24 15L23 15L23 17L24 17L24 16L25 16L25 14ZM34 14L34 15L33 15L33 17L32 17L32 18L34 18L34 19L33 19L33 20L36 20L36 19L35 19L35 18L34 18L34 16L35 16L35 14ZM30 17L30 20L31 20L31 17ZM24 18L24 19L25 19L25 18ZM34 21L34 22L35 22L35 21ZM13 22L13 23L14 23L14 22ZM17 22L17 23L18 23L18 22ZM10 23L10 24L9 24L9 25L8 25L8 27L9 27L9 25L10 25L10 24L12 24L12 23ZM19 23L19 24L20 24L20 23ZM26 23L26 24L27 24L27 23ZM1 24L1 25L0 25L0 29L1 29L1 25L2 25L2 24ZM6 25L6 26L7 26L7 25ZM24 27L24 28L25 28L25 27ZM6 28L6 29L7 29L7 28ZM22 28L22 29L23 29L23 28ZM20 29L20 30L21 30L21 29ZM29 29L29 32L32 32L32 29ZM30 30L30 31L31 31L31 30ZM29 33L29 35L31 35L31 34L32 34L32 33L31 33L31 34L30 34L30 33ZM11 34L11 35L13 35L13 34ZM22 34L22 35L23 35L23 37L24 37L24 35L25 35L25 34ZM36 34L36 36L33 36L33 37L37 37L37 34ZM9 36L9 37L10 37L10 36ZM0 0L0 7L7 7L7 0ZM1 1L1 6L6 6L6 1ZM2 2L2 5L5 5L5 2ZM30 0L30 7L37 7L37 0ZM31 1L31 6L36 6L36 1ZM32 2L32 5L35 5L35 2ZM0 30L0 37L7 37L7 30ZM1 31L1 36L6 36L6 31ZM2 32L2 35L5 35L5 32Z" fill="#000000"/></g></g></svg>
