<?xml version="1.0" encoding="UTF-8"?>
<svg xmlns="http://www.w3.org/2000/svg" version="1.1" width="300" height="300" viewBox="0 0 300 300"><rect x="0" y="0" width="300" height="300" fill="#ffffff"/><g transform="scale(8.108)"><g transform="translate(0,0)"><path fill-rule="evenodd" d="M8 0L8 3L9 3L9 4L10 4L10 5L8 5L8 10L6 10L6 11L9 11L9 12L8 12L8 13L7 13L7 12L6 12L6 13L7 13L7 14L6 14L6 15L5 15L5 8L2 8L2 9L0 9L0 10L2 10L2 13L1 13L1 12L0 12L0 13L1 13L1 14L0 14L0 16L1 16L1 17L0 17L0 19L1 19L1 21L3 21L3 22L1 22L1 24L2 24L2 23L3 23L3 25L2 25L2 26L3 26L3 27L4 27L4 26L5 26L5 27L8 27L8 28L9 28L9 29L8 29L8 30L9 30L9 29L10 29L10 30L11 30L11 31L12 31L12 30L11 30L11 29L13 29L13 28L15 28L15 27L16 27L16 28L17 28L17 29L18 29L18 30L17 30L17 31L15 31L15 30L16 30L16 29L15 29L15 30L14 30L14 31L15 31L15 34L14 34L14 35L13 35L13 36L12 36L12 35L11 35L11 34L9 34L9 33L11 33L11 32L8 32L8 35L11 35L11 36L12 36L12 37L13 37L13 36L14 36L14 35L15 35L15 37L16 37L16 36L17 36L17 35L18 35L18 34L19 34L19 32L18 32L18 31L20 31L20 32L22 32L22 33L23 33L23 32L24 32L24 33L25 33L25 34L21 34L21 33L20 33L20 35L19 35L19 36L18 36L18 37L20 37L20 36L23 36L23 37L28 37L28 36L30 36L30 37L31 37L31 36L32 36L32 34L33 34L33 35L34 35L34 34L35 34L35 32L36 32L36 33L37 33L37 32L36 32L36 31L37 31L37 30L35 30L35 32L34 32L34 33L33 33L33 31L34 31L34 30L33 30L33 28L29 28L29 27L28 27L28 31L26 31L26 32L25 32L25 30L26 30L26 29L27 29L27 26L31 26L31 27L32 27L32 26L31 26L31 24L32 24L32 23L31 23L31 22L32 22L32 21L33 21L33 22L34 22L34 23L35 23L35 22L36 22L36 24L33 24L33 26L34 26L34 27L35 27L35 28L34 28L34 29L36 29L36 27L37 27L37 26L36 26L36 25L37 25L37 22L36 22L36 21L37 21L37 18L35 18L35 16L36 16L36 17L37 17L37 14L35 14L35 12L36 12L36 13L37 13L37 12L36 12L36 11L37 11L37 10L33 10L33 9L32 9L32 8L29 8L29 4L28 4L28 2L29 2L29 0L28 0L28 1L27 1L27 0L26 0L26 1L22 1L22 0L21 0L21 1L20 1L20 0L18 0L18 1L17 1L17 2L16 2L16 3L17 3L17 5L16 5L16 4L14 4L14 5L11 5L11 4L12 4L12 3L15 3L15 0L11 0L11 1L14 1L14 2L10 2L10 0ZM18 1L18 2L19 2L19 3L20 3L20 2L19 2L19 1ZM21 2L21 3L22 3L22 2ZM24 2L24 3L26 3L26 4L27 4L27 5L28 5L28 4L27 4L27 3L26 3L26 2ZM18 4L18 5L17 5L17 7L18 7L18 5L19 5L19 8L18 8L18 10L17 10L17 9L16 9L16 5L14 5L14 6L13 6L13 8L11 8L11 7L12 7L12 6L11 6L11 7L10 7L10 6L9 6L9 8L10 8L10 11L11 11L11 10L12 10L12 12L11 12L11 13L8 13L8 14L9 14L9 15L8 15L8 16L9 16L9 15L10 15L10 18L8 18L8 17L4 17L4 16L5 16L5 15L4 15L4 16L3 16L3 13L2 13L2 14L1 14L1 15L2 15L2 17L3 17L3 18L4 18L4 19L3 19L3 21L4 21L4 19L6 19L6 20L5 20L5 24L4 24L4 25L6 25L6 26L7 26L7 25L6 25L6 24L9 24L9 25L8 25L8 27L10 27L10 28L11 28L11 27L12 27L12 28L13 28L13 27L14 27L14 26L16 26L16 27L17 27L17 28L18 28L18 29L19 29L19 30L20 30L20 31L21 31L21 30L22 30L22 32L23 32L23 31L24 31L24 30L25 30L25 29L24 29L24 27L25 27L25 28L26 28L26 27L25 27L25 26L24 26L24 25L30 25L30 24L28 24L28 23L27 23L27 22L29 22L29 23L30 23L30 22L31 22L31 21L29 21L29 20L28 20L28 19L27 19L27 21L25 21L25 22L24 22L24 21L23 21L23 22L24 22L24 23L21 23L21 25L23 25L23 26L22 26L22 28L18 28L18 27L21 27L21 26L19 26L19 25L20 25L20 22L22 22L22 21L21 21L21 20L22 20L22 19L24 19L24 20L26 20L26 18L28 18L28 17L29 17L29 15L30 15L30 16L31 16L31 15L32 15L32 14L33 14L33 13L34 13L34 12L35 12L35 11L33 11L33 13L32 13L32 12L31 12L31 13L30 13L30 9L28 9L28 6L27 6L27 7L26 7L26 6L25 6L25 7L24 7L24 6L23 6L23 7L24 7L24 8L25 8L25 9L26 9L26 10L24 10L24 9L23 9L23 8L22 8L22 9L23 9L23 12L24 12L24 13L25 13L25 14L23 14L23 15L22 15L22 13L21 13L21 16L22 16L22 17L21 17L21 18L20 18L20 19L21 19L21 20L20 20L20 22L19 22L19 24L18 24L18 26L17 26L17 25L16 25L16 21L18 21L18 19L19 19L19 17L20 17L20 14L18 14L18 13L20 13L20 12L21 12L21 11L19 11L19 10L21 10L21 8L20 8L20 6L21 6L21 7L22 7L22 6L21 6L21 4L20 4L20 5L19 5L19 4ZM23 4L23 5L25 5L25 4ZM14 6L14 7L15 7L15 6ZM25 7L25 8L26 8L26 9L27 9L27 10L26 10L26 11L27 11L27 12L25 12L25 13L28 13L28 14L27 14L27 16L25 16L25 17L27 17L27 16L28 16L28 15L29 15L29 14L30 14L30 15L31 15L31 14L30 14L30 13L28 13L28 11L29 11L29 10L28 10L28 9L27 9L27 8L26 8L26 7ZM6 8L6 9L7 9L7 8ZM13 8L13 9L12 9L12 10L13 10L13 9L14 9L14 10L16 10L16 9L14 9L14 8ZM19 8L19 9L20 9L20 8ZM34 8L34 9L37 9L37 8ZM31 10L31 11L32 11L32 10ZM3 11L3 12L4 12L4 11ZM15 11L15 12L12 12L12 13L11 13L11 15L12 15L12 17L13 17L13 19L12 19L12 20L13 20L13 22L14 22L14 25L13 25L13 26L14 26L14 25L15 25L15 22L14 22L14 21L15 21L15 20L16 20L16 18L15 18L15 17L16 17L16 16L15 16L15 17L14 17L14 16L13 16L13 14L14 14L14 15L15 15L15 14L16 14L16 13L18 13L18 12L16 12L16 11ZM14 13L14 14L15 14L15 13ZM17 14L17 15L18 15L18 14ZM34 14L34 15L33 15L33 17L32 17L32 18L34 18L34 19L33 19L33 20L36 20L36 19L35 19L35 18L34 18L34 16L35 16L35 14ZM6 15L6 16L7 16L7 15ZM23 15L23 17L22 17L22 18L23 18L23 17L24 17L24 15ZM17 16L17 18L18 18L18 17L19 17L19 16ZM30 17L30 20L31 20L31 17ZM6 18L6 19L7 19L7 20L6 20L6 21L7 21L7 22L6 22L6 23L8 23L8 22L9 22L9 21L7 21L7 20L11 20L11 18L10 18L10 19L7 19L7 18ZM24 18L24 19L25 19L25 18ZM13 19L13 20L14 20L14 19ZM10 21L10 23L9 23L9 24L10 24L10 25L9 25L9 26L10 26L10 25L12 25L12 24L13 24L13 23L12 23L12 24L10 24L10 23L11 23L11 22L12 22L12 21ZM34 21L34 22L35 22L35 21ZM3 22L3 23L4 23L4 22ZM17 22L17 23L18 23L18 22ZM26 23L26 24L27 24L27 23ZM0 25L0 29L1 29L1 25ZM34 25L34 26L35 26L35 25ZM2 28L2 29L5 29L5 28ZM6 28L6 29L7 29L7 28ZM22 28L22 29L23 29L23 30L24 30L24 29L23 29L23 28ZM20 29L20 30L21 30L21 29ZM29 29L29 32L32 32L32 29ZM30 30L30 31L31 31L31 30ZM12 32L12 33L13 33L13 32ZM16 32L16 35L17 35L17 33L18 33L18 32ZM26 32L26 34L25 34L25 35L24 35L24 36L26 36L26 34L27 34L27 35L28 35L28 34L29 34L29 35L31 35L31 34L32 34L32 33L31 33L31 34L30 34L30 33L28 33L28 34L27 34L27 32ZM36 34L36 36L33 36L33 37L37 37L37 34ZM9 36L9 37L10 37L10 36ZM0 0L0 7L7 7L7 0ZM1 1L1 6L6 6L6 1ZM2 2L2 5L5 5L5 2ZM30 0L30 7L37 7L37 0ZM31 1L31 6L36 6L36 1ZM32 2L32 5L35 5L35 2ZM0 30L0 37L7 37L7 30ZM1 31L1 36L6 36L6 31ZM2 32L2 35L5 35L5 32Z" fill="#000000"/></g></g></svg>
