<?xml version="1.0" encoding="UTF-8"?>
<svg xmlns="http://www.w3.org/2000/svg" version="1.1" width="300" height="300" viewBox="0 0 300 300"><rect x="0" y="0" width="300" height="300" fill="#ffffff"/><g transform="scale(8.108)"><g transform="translate(0,0)"><path fill-rule="evenodd" d="M8 0L8 3L9 3L9 4L10 4L10 5L8 5L8 10L6 10L6 11L9 11L9 12L8 12L8 13L7 13L7 12L5 12L5 8L2 8L2 9L0 9L0 10L3 10L3 9L4 9L4 12L3 12L3 11L2 11L2 13L1 13L1 12L0 12L0 13L1 13L1 14L0 14L0 16L1 16L1 17L0 17L0 18L1 18L1 23L0 23L0 29L1 29L1 25L2 25L2 27L3 27L3 29L5 29L5 27L8 27L8 28L9 28L9 29L8 29L8 30L10 30L10 31L9 31L9 32L8 32L8 35L11 35L11 36L12 36L12 35L13 35L13 32L12 32L12 35L11 35L11 34L9 34L9 32L10 32L10 31L12 31L12 30L10 30L10 29L13 29L13 28L15 28L15 26L16 26L16 25L13 25L13 26L14 26L14 27L13 27L13 28L12 28L12 27L11 27L11 26L10 26L10 25L12 25L12 24L15 24L15 23L14 23L14 21L15 21L15 20L16 20L16 18L15 18L15 17L16 17L16 16L17 16L17 18L19 18L19 19L18 19L18 21L16 21L16 24L17 24L17 25L18 25L18 24L19 24L19 26L21 26L21 27L18 27L18 26L17 26L17 27L18 27L18 28L16 28L16 29L15 29L15 30L14 30L14 31L15 31L15 34L14 34L14 36L13 36L13 37L16 37L16 36L17 36L17 35L18 35L18 34L20 34L20 33L17 33L17 35L16 35L16 29L17 29L17 32L19 32L19 31L20 31L20 32L22 32L22 33L21 33L21 34L22 34L22 35L23 35L23 37L28 37L28 36L30 36L30 37L31 37L31 36L32 36L32 34L33 34L33 35L34 35L34 34L35 34L35 32L36 32L36 33L37 33L37 32L36 32L36 31L37 31L37 30L35 30L35 32L34 32L34 33L33 33L33 31L34 31L34 30L33 30L33 27L35 27L35 28L34 28L34 29L36 29L36 27L37 27L37 26L36 26L36 25L35 25L35 24L36 24L36 23L37 23L37 22L34 22L34 21L37 21L37 18L35 18L35 16L36 16L36 17L37 17L37 14L35 14L35 12L36 12L36 13L37 13L37 12L36 12L36 11L37 11L37 10L34 10L34 9L37 9L37 8L34 8L34 9L32 9L32 8L29 8L29 4L28 4L28 2L29 2L29 0L28 0L28 1L27 1L27 0L26 0L26 1L23 1L23 2L22 2L22 1L21 1L21 2L20 2L20 3L19 3L19 2L18 2L18 1L17 1L17 2L16 2L16 3L17 3L17 5L16 5L16 4L14 4L14 2L15 2L15 0L12 0L12 2L10 2L10 0ZM13 1L13 2L12 2L12 3L11 3L11 4L13 4L13 5L14 5L14 4L13 4L13 2L14 2L14 1ZM24 2L24 3L26 3L26 2ZM22 3L22 4L18 4L18 5L17 5L17 7L18 7L18 5L19 5L19 8L18 8L18 9L17 9L17 10L18 10L18 11L17 11L17 13L18 13L18 14L16 14L16 13L14 13L14 14L13 14L13 16L12 16L12 15L11 15L11 17L10 17L10 14L11 14L11 13L12 13L12 12L16 12L16 5L15 5L15 8L14 8L14 6L13 6L13 7L12 7L12 5L11 5L11 7L10 7L10 6L9 6L9 8L10 8L10 10L12 10L12 12L9 12L9 13L8 13L8 14L9 14L9 15L8 15L8 17L10 17L10 18L8 18L8 19L10 19L10 18L12 18L12 19L13 19L13 20L15 20L15 18L14 18L14 17L15 17L15 16L16 16L16 15L17 15L17 16L18 16L18 17L20 17L20 14L19 14L19 13L20 13L20 12L21 12L21 11L19 11L19 10L21 10L21 9L22 9L22 10L23 10L23 8L20 8L20 5L21 5L21 7L22 7L22 6L23 6L23 7L24 7L24 8L25 8L25 9L26 9L26 10L24 10L24 12L23 12L23 13L25 13L25 15L24 15L24 17L23 17L23 15L22 15L22 13L21 13L21 16L22 16L22 17L23 17L23 19L22 19L22 18L20 18L20 19L19 19L19 20L20 20L20 21L19 21L19 23L20 23L20 24L21 24L21 25L22 25L22 28L18 28L18 29L19 29L19 30L18 30L18 31L19 31L19 30L20 30L20 31L21 31L21 30L22 30L22 32L23 32L23 31L25 31L25 32L26 32L26 33L22 33L22 34L25 34L25 35L24 35L24 36L26 36L26 35L31 35L31 34L32 34L32 33L31 33L31 34L30 34L30 33L28 33L28 34L27 34L27 32L28 32L28 31L27 31L27 30L28 30L28 27L29 27L29 28L32 28L32 27L33 27L33 24L35 24L35 23L34 23L34 22L33 22L33 21L32 21L32 22L31 22L31 21L30 21L30 20L31 20L31 17L30 17L30 20L28 20L28 19L27 19L27 18L28 18L28 17L29 17L29 16L28 16L28 15L27 15L27 14L28 14L28 13L25 13L25 12L27 12L27 11L26 11L26 10L27 10L27 9L28 9L28 10L29 10L29 11L28 11L28 12L29 12L29 13L30 13L30 14L29 14L29 15L30 15L30 16L31 16L31 15L32 15L32 14L33 14L33 13L34 13L34 12L35 12L35 11L34 11L34 12L33 12L33 13L32 13L32 12L31 12L31 13L30 13L30 9L28 9L28 6L27 6L27 7L26 7L26 6L25 6L25 7L24 7L24 6L23 6L23 5L25 5L25 4L23 4L23 3ZM26 4L26 5L28 5L28 4ZM11 7L11 8L12 8L12 7ZM25 7L25 8L26 8L26 9L27 9L27 8L26 8L26 7ZM6 8L6 9L7 9L7 8ZM13 8L13 9L12 9L12 10L13 10L13 9L14 9L14 10L15 10L15 9L14 9L14 8ZM19 8L19 9L20 9L20 8ZM31 10L31 11L32 11L32 10ZM18 11L18 13L19 13L19 11ZM4 12L4 13L3 13L3 14L1 14L1 15L3 15L3 18L4 18L4 19L3 19L3 21L2 21L2 22L3 22L3 23L1 23L1 24L2 24L2 25L3 25L3 26L4 26L4 25L6 25L6 26L7 26L7 25L8 25L8 27L9 27L9 28L10 28L10 27L9 27L9 25L10 25L10 24L11 24L11 23L10 23L10 21L11 21L11 20L8 20L8 23L10 23L10 24L9 24L9 25L8 25L8 24L7 24L7 23L6 23L6 22L7 22L7 21L6 21L6 20L7 20L7 19L6 19L6 18L7 18L7 17L6 17L6 18L5 18L5 16L7 16L7 15L6 15L6 14L7 14L7 13L6 13L6 14L5 14L5 12ZM9 13L9 14L10 14L10 13ZM4 14L4 16L5 16L5 14ZM14 14L14 15L16 15L16 14ZM30 14L30 15L31 15L31 14ZM34 14L34 15L33 15L33 17L32 17L32 18L34 18L34 19L33 19L33 20L36 20L36 19L35 19L35 18L34 18L34 16L35 16L35 14ZM13 16L13 17L12 17L12 18L13 18L13 19L14 19L14 18L13 18L13 17L14 17L14 16ZM25 16L25 18L24 18L24 19L23 19L23 20L21 20L21 22L20 22L20 23L21 23L21 22L23 22L23 23L24 23L24 22L25 22L25 21L26 21L26 22L27 22L27 23L26 23L26 24L27 24L27 23L28 23L28 24L30 24L30 25L24 25L24 26L25 26L25 27L24 27L24 29L23 29L23 28L22 28L22 29L23 29L23 30L24 30L24 29L25 29L25 30L26 30L26 29L27 29L27 26L31 26L31 24L32 24L32 23L31 23L31 22L30 22L30 21L29 21L29 22L27 22L27 21L26 21L26 20L27 20L27 19L26 19L26 17L28 17L28 16ZM4 19L4 21L3 21L3 22L4 22L4 23L3 23L3 25L4 25L4 24L5 24L5 20L6 20L6 19ZM24 19L24 20L26 20L26 19ZM23 21L23 22L24 22L24 21ZM17 22L17 23L18 23L18 22ZM29 22L29 23L30 23L30 22ZM6 24L6 25L7 25L7 24ZM34 25L34 26L35 26L35 25ZM25 27L25 28L26 28L26 27ZM6 28L6 29L7 29L7 28ZM20 29L20 30L21 30L21 29ZM29 29L29 32L32 32L32 29ZM30 30L30 31L31 31L31 30ZM26 31L26 32L27 32L27 31ZM36 34L36 36L33 36L33 37L37 37L37 34ZM20 35L20 36L18 36L18 37L20 37L20 36L21 36L21 37L22 37L22 36L21 36L21 35ZM9 36L9 37L10 37L10 36ZM0 0L0 7L7 7L7 0ZM1 1L1 6L6 6L6 1ZM2 2L2 5L5 5L5 2ZM30 0L30 7L37 7L37 0ZM31 1L31 6L36 6L36 1ZM32 2L32 5L35 5L35 2ZM0 30L0 37L7 37L7 30ZM1 31L1 36L6 36L6 31ZM2 32L2 35L5 35L5 32Z" fill="#000000"/></g></g></svg>
